<svg xmlns="http://www.w3.org/2000/svg" shape-rendering="geometricPrecision" text-rendering="geometricPrecision" image-rendering="optimizeQuality" fill-rule="evenodd" clip-rule="evenodd" viewBox="0 0 480 511.6"><path d="M177.68 272.01l34.44 90.42 17.31-49.29-8.48-9.27c-6.38-9.33-4.19-19.91 7.63-21.82 3.99-.64 8.47-.24 12.82-.24 4.59 0 9.71-.43 14.07.53 10.97 2.42 12.11 13.06 6.65 21.53l-8.49 9.27 17.31 49.29 31.14-90.42c43.73 39.36 175.09 7.78 177.92 94.09l-.04 6.34v.56h-.01l-.82 124.29c-.01 3.92-1.65 7.51-4.21 10.07-2.59 2.59-6.19 4.24-10.09 4.24H14.34c-3.9 0-7.52-1.62-10.13-4.23C1.64 504.79 0 501.22 0 497.26V364.87c.51 0 1.79-10.45 2.11-11.85 16.91-74.34 132.47-42.2 175.57-81.01zM75.2 424.06l-.25 9.7h5.68l9.7-.25.92 1.17-1 12.2-10.79-.25h-4.84v1.09l.67 17.55H58.48l.84-15.88-.84-38.2h36.11l.92 1.17-1.08 12.21-13.38-.51H75.2zm48.11-13.87c7.86 0 13.93 2.32 18.22 6.98 4.29 4.65 6.44 11.21 6.44 19.68 0 9.36-2.36 16.61-7.07 21.74-4.71 5.12-11.38 7.69-20.02 7.69-7.85 0-13.93-2.36-18.22-7.07-4.29-4.71-6.44-11.38-6.44-20.02 0-9.25 2.36-16.4 7.07-21.44 4.71-5.04 11.38-7.56 20.02-7.56zm-1.51 13.37c-2.17 0-3.81.38-4.93 1.13-1.11.75-1.91 2.08-2.38 3.97-.47 1.9-.71 4.66-.71 8.28 0 4.62.25 8.13.75 10.53.5 2.39 1.35 4.07 2.55 5.02 1.2.94 2.97 1.41 5.31 1.41 2.17 0 3.81-.37 4.93-1.12 1.12-.75 1.91-2.09 2.38-4.01.48-1.93.71-4.7.71-8.32 0-4.57-.25-8.06-.75-10.45-.5-2.4-1.35-4.07-2.55-5.02-1.2-.94-2.97-1.42-5.31-1.42zm78.87 15.05l-.08 8.61c-.06 6.13-2.12 10.84-6.19 14.13-4.07 3.28-9.89 4.93-17.47 4.93-7.3 0-12.89-1.65-16.76-4.93-3.87-3.29-5.73-8-5.56-14.13l.25-8.61-.5-27.42h16.8l-.75 33.77c-.06 2.84.49 4.9 1.63 6.19 1.14 1.28 2.99 1.92 5.56 1.92 2.62 0 4.51-.64 5.68-1.92 1.17-1.29 1.73-3.35 1.68-6.19l-.76-33.77h17.06l-.59 27.42zm58.97 9.03l.67 17.63h-18.22l-15.21-28.92h-1.01l-.08 9.36.67 19.56h-15.22l.84-15.88-.84-38.2h18.23l15.21 28.92h1l-.5-28.34 15.38-.91-.92 36.78zm36.49-36.78c7.97 0 14.08 2.16 18.35 6.48 4.26 4.32 6.39 10.54 6.39 18.68 0 9.64-2.48 17.05-7.44 22.23-4.96 5.19-12.06 7.78-21.31 7.78-5.8 0-12.6-.25-20.4-.76l.84-15.88-.84-38.2 24.41-.33zm-.84 42.71c2.62 0 4.61-1.04 5.98-3.13 1.36-2.09 2.05-5.54 2.05-10.33 0-4.06-.28-7.27-.84-9.61-.56-2.34-1.45-4.03-2.67-5.06-1.23-1.03-2.93-1.54-5.1-1.54-2.12 0-4.21.11-6.27.33l-.59 23.49.17 5.18c3.35.45 5.77.67 7.27.67zm70.43-1.67l.92 1.17-1.01 12.2h-38.11l.83-15.88-.83-38.2h38.78l.92 1.17-1.09 12.21-13.29-.51h-8.6l-.17 7.61h8.27l8.7-.25.92 1.17-1.01 12.21-9.69-.26h-7.53l-.08 3.18.17 4.68h8.02l13.88-.5zm43.76-7.94c4.01 6.24 8.02 12.04 12.04 17.39l-.26 1.83c-5.68 1.73-11.28 2.76-16.8 3.1l-1.59-1.34-1-2.09c-.44-.89-1.34-2.77-2.67-5.64-1.34-2.87-2.51-5.56-3.51-8.07h-5.6l.58 16.13h-16.8l.84-15.88-.84-38.2 25.66-.08c6.07 0 10.75 1.43 14.04 4.3 3.29 2.87 4.94 7.01 4.94 12.41 0 3.18-.8 6.16-2.39 8.95-1.58 2.79-3.8 5.18-6.64 7.19zm-8.61-14.46c0-2.23-.57-3.89-1.72-4.98-1.14-1.08-2.99-1.68-5.55-1.79l-3.01.25-.34 13.96 6.1.33c1.56-.72 2.71-1.7 3.43-2.92.73-1.23 1.09-2.85 1.09-4.85zM185.79 248.27c-11.08-9.86-19.84-16.97-21.71-37.44l-1.18.02c-2.75-.03-5.4-.66-7.87-2.08-3.97-2.26-6.76-6.13-8.64-10.5-4-9.17-7.16-33.29 2.88-40.19l-1.88-1.25-.21-2.67c-.38-4.85-.49-10.73-.58-16.89-.36-22.69-.83-50.17-19.06-55.68l-7.83-2.37 5.16-6.37c14.74-18.21 30.13-34.14 45.66-46.36C188.09 12.66 205.94 3.46 223.41.8c17.96-2.73 35.36 1.4 51.43 14.39 4.74 3.83 9.35 8.44 13.79 13.84 17.15 1.66 31.17 10.89 41.18 24.07 5.97 7.87 10.51 17.18 13.4 27.06 2.87 9.86 4.13 20.34 3.6 30.67-.98 18.48-7.74 36.54-21.36 49.71 2.39.09 4.65.64 6.65 1.71 7.6 4.07 7.85 12.9 5.85 20.31-1.98 6.19-4.49 13.38-6.85 19.42-2.88 8.14-7.09 9.66-15.22 8.78-.41 20.14-9.72 25.68-22.24 37.51-7.15 33.85-98 29.32-107.85 0zm277.9 132.87H16.28v114.18h446.66l.75-114.18z"/></svg>